<?xml version="1.0" standalone="no"?>
<!DOCTYPE svg PUBLIC "-//W3C//DTD SVG 20010904//EN"
 "http://www.w3.org/TR/2001/REC-SVG-20010904/DTD/svg10.dtd">
<svg version="1.0" xmlns="http://www.w3.org/2000/svg"
 width="1920.000000pt" height="1920.000000pt" viewBox="0 0 1920.000000 1920.000000"
 preserveAspectRatio="xMidYMid meet">

<g transform="translate(0.000000,1920.000000) scale(0.100000,-0.100000)"
fill="#000000" stroke="none">
<path d="M5310 14499 c-727 -84 -1343 -621 -1520 -1324 -57 -227 -53 -31 -57
-2940 -2 -1723 0 -2729 6 -2817 18 -243 74 -453 177 -663 240 -492 694 -844
1242 -963 l127 -27 2245 0 2245 0 57 28 c74 36 150 119 178 195 18 47 21 72
18 142 -6 125 -56 215 -156 278 -101 66 3 62 -1834 62 l-1668 0 0 3665 0 3665
2695 0 2695 0 2 -1677 3 -1678 24 -59 c32 -80 118 -166 197 -196 80 -31 187
-32 266 -1 71 27 146 97 184 171 l29 55 5 685 5 685 607 3 607 2 3 -702 3
-703 26 -56 c37 -79 90 -133 167 -171 60 -30 75 -33 157 -33 77 0 98 4 147 27
73 34 137 98 174 174 l29 59 3 1200 c2 810 -1 1237 -8 1314 -22 230 -74 411
-181 626 -93 187 -177 304 -334 460 -273 273 -564 425 -960 503 -72 14 -459
16 -3805 18 -2056 1 -3759 -2 -3800 -7z m350 -1349 l0 -650 -612 0 -611 0 6
188 c7 207 25 308 77 438 140 351 465 609 836 663 32 5 114 9 182 10 l122 1 0
-650z m7225 616 c377 -97 672 -393 772 -774 22 -83 26 -126 30 -295 l6 -197
-609 2 -609 3 -3 649 -2 649 157 -6 c125 -4 179 -10 258 -31z m-7225 -2626 l0
-650 -610 0 -610 0 0 650 0 650 610 0 610 0 0 -650z m0 -2010 l0 -650 -610 0
-610 0 0 643 c0 354 3 647 7 650 3 4 278 7 610 7 l603 0 0 -650z m0 -2010 l0
-650 -124 0 c-139 0 -256 17 -364 54 -400 137 -678 487 -722 907 -11 113 -14
322 -3 332 3 4 278 7 610 7 l603 0 0 -650z"/>
<path d="M8650 11575 c-262 -59 -475 -226 -586 -460 -81 -170 -77 -130 -81
-943 -3 -634 -2 -735 12 -810 43 -228 173 -423 368 -550 242 -158 561 -177
818 -49 97 48 1000 682 1091 766 32 29 85 93 117 141 248 371 160 872 -200
1137 -285 210 -945 668 -1005 697 -115 57 -202 77 -344 82 -86 2 -145 -1 -190
-11z m661 -1015 c250 -176 466 -334 482 -350 32 -35 37 -95 11 -139 -13 -21
-561 -417 -877 -633 -78 -53 -126 -62 -178 -31 -61 36 -60 17 -57 742 l3 659
25 27 c31 33 54 44 101 44 32 1 91 -38 490 -319z"/>
<path d="M12805 9604 c-121 -12 -278 -38 -382 -64 -706 -173 -1304 -653 -1622
-1304 -85 -173 -133 -301 -176 -471 -60 -235 -70 -320 -70 -620 0 -238 3 -285
23 -398 124 -691 498 -1264 1077 -1652 136 -91 411 -224 577 -279 661 -220
1400 -145 1997 201 681 395 1126 1072 1222 1858 18 146 15 446 -5 590 -99 708
-470 1312 -1050 1713 -298 207 -628 338 -1007 402 -120 21 -474 35 -584 24z
m493 -728 c490 -90 896 -357 1171 -769 67 -100 162 -296 201 -415 199 -612 44
-1283 -402 -1747 -324 -337 -728 -520 -1193 -542 -935 -42 -1750 688 -1813
1626 -46 674 293 1305 884 1645 105 61 293 136 419 169 87 22 135 31 280 51
63 9 374 -3 453 -18z"/>
<path d="M13464 8009 c-97 -12 -138 -40 -299 -199 -83 -83 -155 -150 -160
-150 -5 0 -79 69 -164 153 -180 178 -214 197 -346 197 -143 0 -254 -69 -317
-198 -30 -60 -33 -75 -33 -152 1 -133 23 -171 208 -357 l151 -153 -151 -153
c-185 -186 -207 -224 -208 -357 0 -77 3 -92 33 -152 36 -74 96 -134 170 -170
71 -34 197 -37 277 -7 53 19 79 41 216 176 85 84 159 153 164 153 4 0 79 -69
164 -153 181 -178 215 -197 346 -197 141 0 254 70 316 195 52 106 48 241 -8
334 -9 14 -84 95 -167 179 l-151 152 152 153 c186 186 208 224 208 357 0 72
-4 94 -29 147 -65 142 -212 222 -372 202z"/>
</g>
</svg>
